<?xml version="1.0" encoding="UTF-8"?> <svg xmlns="http://www.w3.org/2000/svg" id="Layer_1" data-name="Layer 1" viewBox="0 0 150 40"><defs><style>.cls-1{fill:#231f20;}.cls-2{fill:#229cd3;}.cls-3{fill:#f4f4f4;}</style></defs><path class="cls-1" d="M104.82,34v.23a.36.36,0,0,1-.11.27.41.41,0,0,1-.28.11.38.38,0,0,1-.38-.38V28.73a.39.39,0,0,1,.11-.27.39.39,0,0,1,.55,0,.37.37,0,0,1,.11.28v2.08a2,2,0,0,1,2.45-.38,2,2,0,0,1,.76.78,2.35,2.35,0,0,1,.3,1.2,2.32,2.32,0,0,1-.3,1.2,2,2,0,0,1-.76.78,2,2,0,0,1-2.45-.38Zm2.35-.47a1.55,1.55,0,0,0,.38-1.13,1.52,1.52,0,0,0-.38-1.12,1.31,1.31,0,0,0-1-.4,1.54,1.54,0,0,0-.73.17,2.28,2.28,0,0,0-.61.46V33.3a1.93,1.93,0,0,0,.61.46,1.55,1.55,0,0,0,.73.18A1.31,1.31,0,0,0,107.17,33.54Z"></path><path class="cls-1" d="M109.71,36.46a.39.39,0,0,1-.1-.27.3.3,0,0,1,0-.13l.55-1.42-1.59-3.88a.53.53,0,0,1,0-.16.38.38,0,0,1,.12-.28.37.37,0,0,1,.27-.11.4.4,0,0,1,.35.24l1.31,3.23,1.33-3.22a.36.36,0,0,1,.35-.25.38.38,0,0,1,.39.39.32.32,0,0,1,0,.14l-2.31,5.56a.39.39,0,0,1-.36.27A.36.36,0,0,1,109.71,36.46Z"></path><path class="cls-1" d="M115.4,34.07a2.25,2.25,0,0,1-.58-1.66A2.72,2.72,0,0,1,115,31.3a1.87,1.87,0,0,1,.68-.82,1.92,1.92,0,0,1,1.12-.31,2,2,0,0,1,1.09.29,1.74,1.74,0,0,1,.69.78,2.36,2.36,0,0,1,.24,1.06.36.36,0,0,1-.39.38H115.6a1.37,1.37,0,0,0,.44.93,1.53,1.53,0,0,0,1,.33,2.38,2.38,0,0,0,.63-.07,2.73,2.73,0,0,0,.52-.19.24.24,0,0,1,.15,0,.34.34,0,0,1,.34.33.37.37,0,0,1-.22.32,4,4,0,0,1-.65.28,3.26,3.26,0,0,1-.84.09A2.18,2.18,0,0,1,115.4,34.07Zm2.7-2a1.38,1.38,0,0,0-.22-.7,1.09,1.09,0,0,0-.47-.41,1.29,1.29,0,0,0-1.13,0,1.15,1.15,0,0,0-.47.41,1.48,1.48,0,0,0-.21.7Z"></path><path class="cls-1" d="M119.35,34.51a.41.41,0,0,1-.1-.28.36.36,0,0,1,.09-.24l1.31-1.55-1.31-1.6a.44.44,0,0,1-.1-.25.39.39,0,0,1,.11-.28.4.4,0,0,1,.28-.1.36.36,0,0,1,.3.14l1.19,1.47,1.18-1.47a.33.33,0,0,1,.29-.14.37.37,0,0,1,.28.1.33.33,0,0,1,.11.26.41.41,0,0,1-.08.24l-1.34,1.58L122.88,34a.37.37,0,0,1,.09.25.38.38,0,0,1-.1.27.36.36,0,0,1-.29.12.33.33,0,0,1-.29-.16L121.08,33,120,34.45a.42.42,0,0,1-.33.17A.35.35,0,0,1,119.35,34.51Z"></path><path class="cls-1" d="M124.39,34.38a1.93,1.93,0,0,1-.76-.79,2.5,2.5,0,0,1-.27-1.18,2.46,2.46,0,0,1,.27-1.17,1.87,1.87,0,0,1,.76-.79,2.46,2.46,0,0,1,2.28,0,1.87,1.87,0,0,1,.76.79,2.46,2.46,0,0,1,.27,1.17,2.5,2.5,0,0,1-.27,1.18,1.93,1.93,0,0,1-.76.79,2.46,2.46,0,0,1-2.28,0Zm1.81-.59a1.27,1.27,0,0,0,.53-.5,1.83,1.83,0,0,0,.2-.89,1.75,1.75,0,0,0-.2-.87,1.27,1.27,0,0,0-.53-.5,1.41,1.41,0,0,0-.67-.16,1.44,1.44,0,0,0-.67.16,1.19,1.19,0,0,0-.52.5,1.65,1.65,0,0,0-.2.87,1.72,1.72,0,0,0,.2.89,1.19,1.19,0,0,0,.52.5,1.45,1.45,0,0,0,.67.17A1.42,1.42,0,0,0,126.2,33.79Z"></path><path class="cls-1" d="M128.66,33.54V30.91h-.6a.14.14,0,0,1-.11,0,.18.18,0,0,1,0-.12.15.15,0,0,1,.08-.14l1.15-1.13a.23.23,0,0,1,.14-.08.17.17,0,0,1,.12.05.19.19,0,0,1,0,.12v.68h1a.32.32,0,0,1,.24.09.36.36,0,0,1,.09.24.32.32,0,0,1-.09.23.3.3,0,0,1-.24.1h-1v2.56a.46.46,0,0,0,.16.42A.8.8,0,0,0,130,34a1.27,1.27,0,0,0,.34,0l.08,0h.09a.33.33,0,0,1,.22.09.29.29,0,0,1,.09.22.33.33,0,0,1-.2.3,1.66,1.66,0,0,1-.7.15C129.08,34.66,128.66,34.29,128.66,33.54Z"></path><path class="cls-1" d="M131.57,34.07a2.25,2.25,0,0,1-.58-1.66,2.72,2.72,0,0,1,.22-1.11,1.85,1.85,0,0,1,.67-.82,2.2,2.2,0,0,1,2.22,0,1.87,1.87,0,0,1,.69.78A2.36,2.36,0,0,1,135,32.3a.37.37,0,0,1-.11.27.34.34,0,0,1-.28.11h-2.88a1.42,1.42,0,0,0,.45.93,1.49,1.49,0,0,0,1,.33,2.3,2.3,0,0,0,.62-.07,2.5,2.5,0,0,0,.52-.19.29.29,0,0,1,.16,0,.3.3,0,0,1,.23.1.29.29,0,0,1,.1.23.37.37,0,0,1-.22.32,3.64,3.64,0,0,1-.65.28,3.13,3.13,0,0,1-.83.09A2.15,2.15,0,0,1,131.57,34.07Zm2.7-2a1.38,1.38,0,0,0-.22-.7,1.15,1.15,0,0,0-.47-.41,1.31,1.31,0,0,0-1.14,0,1.13,1.13,0,0,0-.46.41,1.38,1.38,0,0,0-.22.7Z"></path><path class="cls-1" d="M135.82,34.51a.36.36,0,0,1-.11-.27V28.73a.35.35,0,0,1,.11-.27.34.34,0,0,1,.27-.12.38.38,0,0,1,.39.39v5.51a.37.37,0,0,1-.12.27.39.39,0,0,1-.54,0Z"></path><path class="cls-2" d="M26.84,35.77H14.18a3.81,3.81,0,0,1-4.08-4.06c0-8.33,0-16.65,0-25a4.28,4.28,0,0,1,4.19-4.16c8.38.06,16.76,0,25.14,0a4.06,4.06,0,0,1,4.2,4.21c-.08,8.32-.06,16.64,0,25a3.93,3.93,0,0,1-4,4C35.34,35.69,31.09,35.77,26.84,35.77Zm-.71-17.21.19-.2c-2-1.46-4-3-6.06-4.36A6.12,6.12,0,0,0,11,17.48a6.45,6.45,0,0,0,1.5,6.64,6.08,6.08,0,0,0,6.24,1.75c2.75-.67,4.88-2.44,7-4.2s4.16-3.48,6.32-5.13a5.81,5.81,0,0,1,5.24-.75A4.21,4.21,0,0,1,39.83,21,3.8,3.8,0,0,1,37.55,24a4.66,4.66,0,0,1-2.93,0,44.08,44.08,0,0,1-4.7-2.38c-.63-.34-1.25-.7-1.88-1.05,1,1.36,5.93,4.73,7.41,5.22a5.13,5.13,0,0,0,4.77-.72,6.74,6.74,0,0,0,2.22-8.5,6.08,6.08,0,0,0-3.1-3.17,7.09,7.09,0,0,0-6.13.61c-2.63,1.32-4.7,3.37-6.87,5.28a22,22,0,0,1-5.68,4,4.68,4.68,0,0,1-6.55-4.15,3.93,3.93,0,0,1,3.31-4.23,5.43,5.43,0,0,1,3.53.71C22.7,16.53,24.41,17.57,26.13,18.56Z"></path><path class="cls-2" d="M88.34,24.22H84.7c0-1.59,0-3.13,0-4.67,0-1.25,0-2.5,0-3.76a2,2,0,0,0-.25-.67,2.48,2.48,0,0,0-.58.47q-2.58,3.87-5.14,7.75l-.53.73c-.8-1.17-1.56-2.27-2.3-3.37-1.13-1.68-2.25-3.37-3.39-5a4.79,4.79,0,0,0-.75-.66l-.21.17v9H68V11.86c2.1,0,4.19,0,6.27,0,.27,0,.6.43.78.74,1,1.8,2,3.62,3.12,5.59,1-1.76,1.93-3.35,2.71-5a2,2,0,0,1,2.25-1.36c1.69.1,3.4,0,5.17,0Z"></path><path class="cls-2" d="M128.63,24.56c-1.86-.1-3.65-.14-5.44-.31a2.55,2.55,0,0,1-2.57-2.6c-.11-2.43-.1-4.88,0-7.31.06-1.39,1.07-2.05,2.4-2.31,3-.6,6-.26,9-.29a15.19,15.19,0,0,1,3,.53,2,2,0,0,1,1.58,2.1c.12,2.07.16,4.14.19,6.22a7.07,7.07,0,0,1-.22,1.57,2.59,2.59,0,0,1-2.29,2.08C132.39,24.39,130.48,24.46,128.63,24.56Zm0-9.6v0c-1,0-1.91,0-2.87,0s-1.43.44-1.54,1.49-.17,1.9-.17,2.85a1.48,1.48,0,0,0,1.51,1.72c2,.08,4.11,0,6.16,0,1.1,0,1.37-.68,1.43-1.53a23.27,23.27,0,0,0,0-2.77c-.08-1.34-.57-1.79-1.91-1.83C130.36,14.94,129.5,15,128.63,15Z"></path><path class="cls-2" d="M90,11.9c.29,0,.53-.05.77-.05,3.89,0,7.78,0,11.67,0,.74,0,1,.24.87.92a5.06,5.06,0,0,0-.06.53c-.1,1.51-.1,1.51-1.67,1.51H93.72v1.72h9.08a17.19,17.19,0,0,1,0,2.29c0,.22-.5.53-.78.53-2.51,0-5,.05-7.54,0-.59,0-.87.08-.79.69s-.34,1.26.74,1.24c2.6,0,5.21,0,7.81,0,1.16,0,1.18,0,1.17,1.13,0,2.17.27,1.87-1.91,1.88-3.47,0-6.94,0-10.41,0H90Z"></path><path class="cls-2" d="M67.37,24.27c-1.28,0-2.53,0-3.77,0-.26,0-.6-.46-.71-.77a1.73,1.73,0,0,0-2-1.26c-2,.09-3.94,0-5.92,0-.28,0-.6.31-.83.54a1.68,1.68,0,0,0-.29.65,1.19,1.19,0,0,1-1.39.91c-1-.09-2.09,0-3.21,0a3.33,3.33,0,0,1,.14-.55C51.28,20,53.2,16.3,55.09,12.58a1.17,1.17,0,0,1,1.25-.74c1.4,0,2.81,0,4.21,0a1.13,1.13,0,0,1,.86.43c2,3.86,3.94,7.75,5.89,11.63A1.72,1.72,0,0,1,67.37,24.27Zm-6.46-4.89c-.73-1.47-1.39-2.86-2.11-4.22-.28-.55-.68-.57-1,0l-2.1,4.2Z"></path><path class="cls-2" d="M114.52,24.23h-3.81c0-1.18.05-2.34,0-3.48a2.65,2.65,0,0,0-.54-1.43c-2-2.35-4-4.66-5.94-7-.09-.11-.16-.22-.35-.47,1.63,0,3.11,0,4.59,0,.25,0,.54.34.73.58,1.11,1.39,2.2,2.8,3.37,4.29,1.12-1.47,2.19-2.85,3.21-4.26a1.32,1.32,0,0,1,1.25-.66c1.28.05,2.56,0,4.08,0-.72.9-1.31,1.66-1.92,2.41-1.39,1.71-2.81,3.4-4.17,5.13a2.41,2.41,0,0,0-.45,1.27C114.48,21.82,114.52,23,114.52,24.23Z"></path><path class="cls-3" d="M26.13,18.56c-1.72-1-3.43-2-5.18-3a5.43,5.43,0,0,0-3.53-.71,3.93,3.93,0,0,0-3.31,4.23,4.68,4.68,0,0,0,6.55,4.15,22,22,0,0,0,5.68-4c2.17-1.91,4.24-4,6.87-5.28a7.09,7.09,0,0,1,6.13-.61,6.08,6.08,0,0,1,3.1,3.17,6.74,6.74,0,0,1-2.22,8.5,5.13,5.13,0,0,1-4.77.72C34,25.28,29,21.91,28,20.55c.63.35,1.25.71,1.88,1.05A44.08,44.08,0,0,0,34.62,24a4.66,4.66,0,0,0,2.93,0A3.8,3.8,0,0,0,39.83,21a4.21,4.21,0,0,0-2.57-5.25,5.81,5.81,0,0,0-5.24.75c-2.16,1.65-4.23,3.4-6.32,5.13s-4.25,3.53-7,4.2a6.08,6.08,0,0,1-6.24-1.75A6.45,6.45,0,0,1,11,17.48,6.12,6.12,0,0,1,20.26,14c2.08,1.36,4,2.9,6.06,4.36Z"></path></svg> 