<svg xmlns="http://www.w3.org/2000/svg" width="168" height="50" viewBox="0 0 168 50"><g id="Logo" transform="translate(271.658 14.626)"><path id="Path_1" data-name="Path 1" d="M35.27 25.043l6.483-2.193A16.856 16.856.0 0 0 27.23 8.338l-2.161 6.405L24.983.0 22.908 8.338A16.825 16.825.0 0 0 8.443 22.822l6.311 2.164L0 25.13l8.443 2.135A16.852 16.852.0 0 0 22.764 41.72l2.276-6.492L25.127 50l2.19-8.309A16.825 16.825.0 0 0 41.753 27.178l8.356-2.164zm-4.293 7.905A9.9 9.9.0 0 1 25.1 34.882a9.754 9.754.0 0 1-5.907-1.962l-5.36 3.4 3.314-5.482a9.865 9.865.0 0 1 .029-11.685L13.8 13.82l5.417 3.26a9.861 9.861.0 0 1 11.728-.058l5.331-3.231-3.256 5.251a9.892 9.892.0 0 1 1.988 5.943A9.783 9.783.0 0 1 33.051 30.9l3.314 5.366z" transform="translate(-271.658 -14.626)" fill="#083654"/><path id="Path_2" data-name="Path 2" d="M68.2 67.853l5.818-2.472 5.647 2.472L74.021 70.46z" transform="translate(-320.431 -61.38)" fill="#f7931e"/><path id="Path_3" data-name="Path 3" d="M65.872 76.364l5.734 2.616v6.576l-5.734-2.278z" transform="translate(-318.803 -69.116)" fill="#f7931e"/><path id="Path_4" data-name="Path 4" d="M94.691 76.391l-5.862 2.525V85.9L94.691 83.2z" transform="translate(-334.836 -69.117)" fill="#f7931e"/><path id="Path_5" data-name="Path 5" d="M221.6 56.71a11.368 11.368.0 0 1-1.919 6.447 11.027 11.027.0 0 1-5.35 4.155A12.074 12.074.0 0 1 210 68.2a13.019 13.019.0 0 1-3.838-.43 13.181 13.181.0 0 1-6.572-4.642A12 12 0 0 1 197 55.649a11.333 11.333.0 0 1 3.867-8.51 12.5 12.5.0 0 1 8.811-3.639 14.517 14.517.0 0 1 6.135 1.175l1.192.544-2.821 3.037a9.061 9.061.0 0 0-4.362-1 8.569 8.569.0 0 0-5.99 2.436 7.6 7.6.0 0 0-2.646 5.7l.058.086a8.972 8.972.0 0 0 2.326 6.046 7.5 7.5.0 0 0 5.845 2.779 8.471 8.471.0 0 0 4.769-1.433 6.019 6.019.0 0 0 2.762-4.012h-6.135V55.076h10.73V56.71z" transform="translate(-411.958 -45.626)" fill="#f7931e"/><path id="Path_6" data-name="Path 6" d="M301.019 83.217a7.336 7.336.0 0 1-2.545 5.7 8.747 8.747.0 0 1-11.771.029 7.426 7.426.0 0 1-2.6-5.7 7.535 7.535.0 0 1 2.545-5.815 8.461 8.461.0 0 1 5.9-2.232 8.363 8.363.0 0 1 5.9 2.232A7.457 7.457.0 0 1 301.019 83.217zm-4.107.0a4.07 4.07.0 0 0-1.272-3.025 4.265 4.265.0 0 0-3.095-1.233 4.38 4.38.0 0 0-3.123 1.233 4.054 4.054.0 0 0-1.3 3.054 3.847 3.847.0 0 0 1.388 2.966 4.346 4.346.0 0 0 3.037 1.175 4.5 4.5.0 0 0 3.066-1.2A3.867 3.867.0 0 0 296.912 83.217z" transform="translate(-473.848 -68.352)" fill="#f7931e"/><path id="Path_7" data-name="Path 7" d="M364.734 62.724a5.864 5.864.0 0 1-2.868 5.236 10.947 10.947.0 0 1-6.054 1.562H349.7V45.629l6.025-.029a13.4 13.4.0 0 1 5.822 1.157c2.057 1.475 2.984 3.182 2.723 5.178a7.432 7.432.0 0 1-1.159 3.413 8.116 8.116.0 0 1-2.578 1.88 6.406 6.406.0 0 1 3.1 2.112A5.7 5.7.0 0 1 364.734 62.724zm-4.78-10.529a2.485 2.485.0 0 0-1.1-2.256 6.53 6.53.0 0 0-3.418-.723l-1.535.029v6.277l1.651-.087C358.245 55.521 359.694 54.422 359.954 52.195zm.521 10.326a3.013 3.013.0 0 0-1.622-2.806 6.8 6.8.0 0 0-3.36-.752H353.9v6.624h1.738a7 7 0 0 0 3.128-.752A2.487 2.487.0 0 0 360.476 62.521z" transform="translate(-520.521 -47.184)" fill="#083654"/><path id="Path_8" data-name="Path 8" d="M513.826 69.021H502.3V45.3h4.271V65.254h7.255z" transform="translate(-629.271 -46.945)" fill="#083654"/><path id="Path_9" data-name="Path 9" d="M548.465 48.9l-4.706.086v19.93h-4.111v-19.9l-4.848-.086.113-3.733h13.551z" transform="translate(-652.123 -46.845)" fill="#083654"/><path id="Path_10" data-name="Path 10" d="M432.663 62.59a10.772 10.772.0 1 1-9.7-16.07V45.2a12.112 12.112.0 1 0 11.19 17.39zm-.229-5.28a9.152 9.152.0 0 0-8.5-9.154v1.464a7.718 7.718.0 0 1 0 15.381v1.464A9.154 9.154.0 0 0 432.434 57.31zm-9.5-7.719V48.127a9.189 9.189.0 0 0 0 18.366V65.029a7.727 7.727.0 0 1 0-15.439z" transform="translate(-564.359 -46.533)" fill="#f7931e"/></g></svg>