<?xml version="1.0" encoding="utf-8"?>
<!-- Generator: Adobe Illustrator 27.4.0, SVG Export Plug-In . SVG Version: 6.00 Build 0)  -->
<svg version="1.1" id="Layer_1" xmlns="http://www.w3.org/2000/svg" xmlns:xlink="http://www.w3.org/1999/xlink" x="0px" y="0px"
	 viewBox="0 0 185 32" style="enable-background:new 0 0 185 32;" xml:space="preserve">
<style type="text/css">
	.st0{fill-rule:evenodd;clip-rule:evenodd;fill:#FFFFFF;}
	.st1{fill:#FFFFFF;}
</style>
<g>
	<path class="st0" d="M65.3,8.1c-1.5,0-3,0.2-4.5,0.8c-1.4,0.6-2.7,1.4-3.8,2.5s-1.9,2.3-2.5,3.8c-0.6,1.4-0.9,2.9-0.8,4.4l0,0
		c0,2.3,0.6,4.6,1.9,6.5c1.3,1.9,3.1,3.4,5.2,4.3c2.1,0.9,4.5,1.2,6.7,0.7c2.3-0.4,4.3-1.5,6-3.1c1.6-1.6,2.8-3.7,3.2-5.9
		c0.5-2.3,0.2-4.6-0.6-6.7c-0.9-2.1-2.4-4-4.3-5.2C69.9,8.8,67.6,8.1,65.3,8.1z M65.3,25c-0.7,0-1.4-0.2-2-0.4
		c-0.6-0.3-1.2-0.7-1.7-1.2s-0.9-1.1-1.1-1.7c-0.2-0.6-0.4-1.3-0.3-2l0,0c0.1-1,0.4-2,1-2.8s1.4-1.4,2.4-1.8c0.9-0.4,2-0.4,3-0.2
		s1.9,0.7,2.6,1.5c0.7,0.8,1.2,1.7,1.3,2.7c0.2,1,0.1,2-0.3,3c-0.4,0.9-1.1,1.7-1.9,2.3C67.3,24.7,66.4,25,65.3,25L65.3,25z"/>
	<path class="st0" d="M47.9,11.5c-1.1-1.1-2.3-2-3.7-2.6S41.3,8,39.8,8c-3,0-6,1.2-8.1,3.4c-2.1,2.2-3.3,5.1-3.3,8.1s1.2,6,3.4,8.1
		s5.1,3.3,8.1,3.3c2.2,0,4.4-0.7,6.1-1.9c2-1.4,3.5-3.3,4.4-5.5h-6.6c-0.4,0.7-1,1.2-1.7,1.5s-1.5,0.5-2.2,0.5c-2.5,0-4.7-1.5-5-3.8
		h16c0.3-1.8,0.2-3.7-0.3-5.5S49.2,12.9,47.9,11.5z M35,16.9c0.3-1,1-1.9,1.9-2.5s1.9-0.9,3-0.9s2.1,0.3,3,0.9
		c0.9,0.6,1.5,1.5,1.9,2.5H35z"/>
	<path class="st0" d="M18.8,1.6L19,19.1L7.9,1.6H1.6v28.7h7L8.5,13.1l11,17.3h6.4V1.6H18.8z"/>
	<path class="st0" d="M159.6,30.4h7.3V8.1h5.6V1.6h-18.6V8h5.7V30.4z"/>
	<path class="st0" d="M135.6,30.4h7.3v-11h8V13h-8V8.1h8.4V1.6h-15.7V30.4z"/>
	<path class="st0" d="M117.8,1.1c-2,0-4,0.3-5.9,1.1s-3.6,1.9-5,3.3s-2.5,3.1-3.3,5c-0.7,1.9-1.1,3.9-1,5.9l0,0c0,3,0.9,5.9,2.6,8.4
		s4.1,4.4,6.8,5.6c2.7,1.2,5.8,1.4,8.8,0.8c2.9-0.6,5.6-2.1,7.7-4.2c2.1-2.1,3.5-4.8,4.1-7.8c0.6-2.9,0.3-6-0.9-8.8
		s-3.1-5.1-5.6-6.8C123.7,2,120.8,1.1,117.8,1.1z M117.9,24.5c-4.9,0-7.9-4.1-7.9-8.5l0,0c0-4,2.8-8.4,7.8-8.4
		c5.3,0,7.8,4.8,7.8,8.5C125.6,19.7,123.1,24.5,117.9,24.5L117.9,24.5z"/>
	<path class="st0" d="M79.6,20.9C79.4,26.5,82.4,31,90,31s10-4.6,10-9.2c0-3.3-1.4-5.8-6.7-8.2c-5.2-2.3-5.9-2.7-5.9-4
		c0-0.6,0.3-1.2,0.8-1.6c0.5-0.4,1.1-0.6,1.7-0.6c2.3,0,2.5,1.8,2.6,2.8h7.3c-0.1-6.9-5.7-8.9-9.7-8.9C85.3,1.3,80,4.4,80,10.2
		c0,5.4,5,7.4,7,8.2c4.4,1.9,5.6,2.3,5.6,3.8c0,0.4-0.1,0.7-0.2,1.1c-0.1,0.3-0.3,0.6-0.6,0.9c-0.3,0.3-0.6,0.5-0.9,0.6
		S90.2,25,89.8,25c-0.9,0-3-0.6-3-3.9L79.6,20.9z"/>
	<g>
		<path class="st0" d="M179.3,0.4c-2.3,0-4.1,1.8-4.1,4.1c0,2.3,1.8,4.1,4.1,4.1c2.3,0,4.1-1.8,4.1-4.1
			C183.4,2.3,181.6,0.4,179.3,0.4 M179.3,8c-1.9,0-3.5-1.5-3.5-3.5c0-1.9,1.5-3.5,3.5-3.5c1.9,0,3.5,1.5,3.5,3.5
			C182.7,6.5,181.2,8,179.3,8"/>
		<path class="st1" d="M178.1,2.6c0.3,0,0.6-0.1,1-0.1c0.5,0,0.9,0.1,1.1,0.3c0.2,0.2,0.3,0.4,0.3,0.7c0,0.5-0.3,0.8-0.7,0.9v0
			c0.3,0.1,0.4,0.4,0.5,0.7c0.1,0.5,0.2,0.9,0.3,1H180c-0.1-0.1-0.1-0.4-0.2-0.9c-0.1-0.5-0.3-0.6-0.7-0.6h-0.3v1.5h-0.7V2.6z
			 M178.8,4.2h0.4c0.4,0,0.7-0.2,0.7-0.6c0-0.4-0.3-0.6-0.7-0.6c-0.2,0-0.3,0-0.4,0V4.2z"/>
	</g>
</g>
</svg>
